<svg viewBox="0 0 41 31" fill="none" xmlns="http://www.w3.org/2000/svg">
<path d="M4.06203 26.6222L4.06372 26.6244C5.05002 27.9207 6.30436 28.9207 7.82243 29.6235C9.34399 30.3279 11.11 30.6758 13.1135 30.6758C15.1165 30.6758 16.8694 30.3281 18.3645 29.6231C19.8821 28.9203 21.1361 27.9204 22.1222 26.6245C23.1335 25.3039 23.8734 23.7085 24.3465 21.8445C24.8466 19.9822 25.0949 17.8767 25.0949 15.5304C25.0949 13.2104 24.8464 11.1179 24.346 9.25542C23.8455 7.39231 23.0922 5.79791 22.0817 4.47819C21.0966 3.1558 19.8568 2.14158 18.3653 1.43806C16.871 0.733196 15.1455 0.384935 13.1957 0.384935C11.219 0.384935 9.4668 0.733024 7.9457 1.43724C6.42731 2.1402 5.1601 3.15371 4.14728 4.47565C3.13491 5.7696 2.38135 7.36552 1.8809 9.25592C1.38061 11.1183 1.13213 13.2106 1.13213 15.5304C1.13213 17.8764 1.36668 19.9813 1.83899 21.8428L1.83896 21.8428L1.83994 21.8464C2.3403 23.7089 3.07948 25.3027 4.06203 26.6222ZM15.427 23.4018L15.427 23.4018L15.4228 23.4048C14.8204 23.8315 14.0565 24.0536 13.1135 24.0536C12.143 24.0536 11.367 23.8314 10.7662 23.4069C10.1463 22.9413 9.63923 22.332 9.24621 21.5732C8.87787 20.8092 8.61125 19.9068 8.45026 18.8621C8.31517 17.8071 8.24743 16.6966 8.24743 15.5304C8.24743 14.3649 8.32875 13.2697 8.49068 12.2441L8.49084 12.2431C8.65177 11.197 8.91857 10.2935 9.28731 9.52863C9.6799 8.77073 10.1856 8.17695 10.8022 7.73965C11.4327 7.31161 12.2252 7.08933 13.1957 7.08933C14.1392 7.08933 14.8867 7.31164 15.4594 7.73494L15.4594 7.73499L15.4638 7.73815C16.0784 8.17345 16.5704 8.77841 16.9366 9.56316L16.9364 9.56326L16.9415 9.57304C17.3352 10.3343 17.6015 11.2342 17.7353 12.2774L17.7351 12.2774L17.7364 12.2852C17.8983 13.3111 17.9796 14.3927 17.9796 15.5304C17.9796 16.7233 17.8983 17.8461 17.7363 18.8992C17.5754 19.9183 17.3082 20.8242 16.9374 21.6192C16.5731 22.3731 16.0696 22.9649 15.427 23.4018ZM39.5035 30.3882H39.7739V30.1178V1.0251V0.754758H39.5035H34.5726H34.4189L34.3403 0.886736C33.6014 2.12705 32.619 2.98885 31.3917 3.48557C30.1409 3.96422 28.7097 4.20644 27.0939 4.20644H26.8236V4.47678V9.40775V9.67809H27.0939H32.5353V30.1178V30.3882H32.8056H39.5035Z" stroke="#EB5D36" stroke-width="0.540677"/>
</svg>
