<svg viewBox="0 0 48 31" fill="none" xmlns="http://www.w3.org/2000/svg">
<path d="M3.40395 26.6222L3.40564 26.6244C4.39194 27.9207 5.64628 28.9207 7.16435 29.6235C8.68591 30.3279 10.4519 30.6758 12.4554 30.6758C14.4584 30.6758 16.2113 30.3281 17.7064 29.6231C19.224 28.9203 20.478 27.9204 21.4641 26.6245C22.4754 25.3039 23.2153 23.7085 23.6884 21.8445C24.1885 19.9822 24.4368 17.8767 24.4368 15.5304C24.4368 13.2104 24.1883 11.1179 23.6879 9.25542C23.1874 7.39235 22.4342 5.79797 21.4237 4.47827C20.4386 3.15584 19.1987 2.14159 17.7072 1.43806C16.2129 0.733196 14.4874 0.384935 12.5376 0.384935C10.5609 0.384935 8.80872 0.733024 7.28762 1.43724C5.76923 2.1402 4.50202 3.15371 3.4892 4.47565C2.47683 5.7696 1.72327 7.36552 1.22282 9.25592C0.722533 11.1183 0.474046 13.2106 0.474046 15.5304C0.474046 17.8764 0.708597 19.9813 1.1809 21.8428L1.18088 21.8428L1.18186 21.8464C1.68221 23.7089 2.4214 25.3027 3.40395 26.6222ZM14.7689 23.4018L14.7689 23.4018L14.7647 23.4048C14.1623 23.8315 13.3984 24.0536 12.4554 24.0536C11.4849 24.0536 10.7089 23.8314 10.1081 23.4069C9.48827 22.9413 8.98115 22.332 8.58813 21.5732C8.21978 20.8092 7.95317 19.9068 7.79218 18.8621C7.65709 17.8071 7.58935 16.6966 7.58935 15.5304C7.58935 14.3649 7.67067 13.2697 7.83259 12.2441L7.83276 12.2431C7.99369 11.197 8.26048 10.2935 8.62923 9.52863C9.02182 8.77073 9.52749 8.17695 10.1441 7.73965C10.7746 7.31161 11.5671 7.08933 12.5376 7.08933C13.4811 7.08933 14.2286 7.31164 14.8013 7.73494L14.8013 7.73499L14.8058 7.73815C15.4203 8.17345 15.9123 8.77841 16.2785 9.56316L16.2783 9.56326L16.2834 9.57304C16.6771 10.3343 16.9434 11.2342 17.0772 12.2774L17.0771 12.2774L17.0783 12.2852C17.2403 13.3111 17.3215 14.3927 17.3215 15.5304C17.3215 16.7233 17.2402 17.8461 17.0782 18.8992C16.9173 19.9183 16.6501 20.8242 16.2793 21.6192C15.9151 22.3731 15.4115 22.9649 14.7689 23.4018ZM26.0744 24.4429L25.9745 24.524V24.6527V30.1178V30.3882H26.2448H46.3796H46.65V30.1178V24.0774V23.8071H46.3796H36.6832C37.6463 23.0509 38.6466 22.2669 39.684 21.455L39.6868 21.4527C40.9559 20.432 42.129 19.3555 43.206 18.2233C44.2929 17.0806 45.185 15.7984 45.8818 14.3775C46.6134 12.9417 46.9787 11.3934 46.9787 9.73648C46.9787 8.1981 46.6991 6.84192 46.1307 5.67555C45.5945 4.5195 44.8588 3.55605 43.9229 2.78982C42.9894 1.99819 41.889 1.40687 40.6258 1.01377C39.3926 0.621491 38.0913 0.426026 36.7231 0.426026C35.2472 0.426026 33.8513 0.620999 32.5368 1.01255L32.5353 1.01302C31.2448 1.40579 30.1042 1.99641 29.1167 2.78639C28.1249 3.57983 27.3336 4.58435 26.7421 5.79526C26.1468 6.98621 25.8251 8.36741 25.7692 9.93229L25.7592 10.2123H26.0394H32.2442H32.4744L32.5111 9.98498C32.6389 9.19231 32.9818 8.51905 33.5427 7.95738C34.0997 7.42609 35.0286 7.13042 36.3944 7.13042C37.5823 7.13042 38.3974 7.44652 38.903 8.02429L38.9028 8.02447L38.9111 8.03314C39.4621 8.60924 39.7401 9.32147 39.7401 10.1885C39.7401 10.9887 39.5342 11.7508 39.1183 12.4787L39.1167 12.4816C38.7186 13.1981 38.2136 13.863 37.6004 14.4763L37.6003 14.4762L37.5962 14.4806C37.0027 15.101 35.7786 16.2305 33.915 17.8748C32.6018 19.0239 31.2886 20.1456 29.9754 21.2399C28.6888 22.3075 27.3884 23.3752 26.0744 24.4429Z" stroke="#EB5D36" stroke-width="0.540677"/>
</svg>
