<svg  viewBox="0 0 51 31" fill="none" xmlns="http://www.w3.org/2000/svg">
<path d="M4.06203 26.5709L4.06372 26.5731C5.05002 27.8694 6.30436 28.8694 7.82243 29.5722C9.34399 30.2767 11.11 30.6245 13.1135 30.6245C15.1165 30.6245 16.8694 30.2768 18.3645 29.5718C19.8821 28.869 21.1361 27.8692 22.1222 26.5732C23.1335 25.2527 23.8734 23.6573 24.3465 21.7932C24.8466 19.931 25.0949 17.8254 25.0949 15.4791C25.0949 13.1591 24.8464 11.0667 24.346 9.20415C23.8455 7.34104 23.0922 5.74664 22.0817 4.42693C21.0966 3.10453 19.8568 2.09031 18.3653 1.38679C16.871 0.681927 15.1455 0.333666 13.1957 0.333666C11.219 0.333666 9.4668 0.681755 7.9457 1.38597C6.42731 2.08893 5.1601 3.10244 4.14728 4.42438C3.13491 5.71833 2.38135 7.31425 1.8809 9.20465C1.38061 11.067 1.13213 13.1593 1.13213 15.4791C1.13213 17.8251 1.36668 19.93 1.83899 21.7915L1.83896 21.7915L1.83994 21.7951C2.3403 23.6576 3.07948 25.2514 4.06203 26.5709ZM15.427 23.3506L15.427 23.3505L15.4228 23.3535C14.8204 23.7802 14.0565 24.0023 13.1135 24.0023C12.143 24.0023 11.367 23.7801 10.7662 23.3556C10.1463 22.89 9.63923 22.2807 9.24621 21.5219C8.87787 20.7579 8.61125 19.8555 8.45026 18.8108C8.31517 17.7559 8.24743 16.6454 8.24743 15.4791C8.24743 14.3136 8.32875 13.2184 8.49068 12.1929L8.49084 12.1918C8.65177 11.1457 8.91857 10.2422 9.28731 9.47736C9.6799 8.71946 10.1856 8.12568 10.8022 7.68838C11.4327 7.26034 12.2252 7.03806 13.1957 7.03806C14.1392 7.03806 14.8867 7.26037 15.4594 7.68367L15.4594 7.68372L15.4638 7.68688C16.0784 8.12218 16.5704 8.72714 16.9366 9.51189L16.9364 9.51199L16.9415 9.52177C17.3352 10.2831 17.6015 11.1829 17.7353 12.2262L17.7351 12.2262L17.7364 12.2339C17.8983 13.2598 17.9796 14.3414 17.9796 15.4791C17.9796 16.672 17.8983 17.7948 17.7363 18.848C17.5754 19.8671 17.3082 20.7729 16.9374 21.568C16.5731 22.3218 16.0696 22.9136 15.427 23.3506ZM27.9752 9.6205L27.9494 9.91446H28.2445H34.7369H34.9637L35.0032 9.6911C35.1562 8.82384 35.559 8.16202 36.2094 7.68597C36.8932 7.20546 37.766 6.95587 38.8461 6.95587C39.7863 6.95587 40.5316 7.1902 41.1039 7.63808L41.1037 7.63832L41.1142 7.64579C41.6972 8.05876 42.0015 8.63404 42.0274 9.40186C42.0269 9.62115 41.9899 9.91402 41.9101 10.286L41.9085 10.2938L41.9073 10.3016C41.8613 10.6007 41.7221 10.8988 41.4737 11.1969L41.4734 11.1967L41.4651 11.2078C41.2517 11.4923 40.9214 11.7551 40.4566 11.9883C40.0109 12.185 39.4104 12.2913 38.6406 12.2913H36.3806H36.1102V12.5616V18.0679V18.3382H36.3806H39.7501C41.0392 18.3382 41.8597 18.6225 42.3027 19.1122C42.7788 19.6384 43.0136 20.2451 43.0136 20.9443C43.0136 21.5097 42.8982 21.9827 42.6785 22.3732L42.6784 22.3732L42.6756 22.3785C42.4773 22.7503 42.2058 23.0598 41.8584 23.3092C41.5078 23.5335 41.0894 23.6993 40.5984 23.8027L40.5955 23.8033C40.1232 23.9083 39.6224 23.9612 39.0926 23.9612C37.9263 23.9612 36.8883 23.7232 35.9727 23.2529C35.0933 22.7745 34.5199 21.9829 34.2609 20.8433L34.2131 20.6328H33.9973H27.4227H27.1347L27.1529 20.9202C27.349 24.03 28.573 26.4493 30.8354 28.1461L30.8372 28.1474C33.0822 29.8031 35.8118 30.6245 39.0104 30.6245C40.2901 30.6245 41.5692 30.4855 42.8475 30.2076C44.1667 29.9269 45.4018 29.4215 46.5517 28.6923C47.7118 27.9566 48.6455 26.9801 49.3515 25.7665C50.0939 24.5377 50.4707 23.0091 50.4987 21.1956C50.5269 19.5893 50.1603 18.1425 49.3936 16.8634C48.7304 15.6914 47.7606 14.8158 46.4952 14.2368C47.3169 13.6642 47.9825 12.9161 48.4913 11.9962C49.1164 10.9157 49.4304 9.76035 49.4304 8.53465C49.4304 7.04837 49.136 5.77983 48.5315 4.74276C47.9358 3.69368 47.14 2.8407 46.146 2.18712C45.1844 1.53693 44.0717 1.07324 42.8119 0.792885C41.5859 0.486683 40.3323 0.333666 39.0515 0.333666C37.6043 0.333666 36.2371 0.514592 34.951 0.878037L34.9495 0.878473C33.6861 1.24346 32.5594 1.80619 31.5721 2.5678C30.5814 3.33209 29.7633 4.30677 29.1168 5.48731L29.1157 5.48934C28.4923 6.65128 28.1146 8.03069 27.9752 9.6205Z" stroke="#EB5D36" stroke-width="0.540677"/>
</svg>
