<svg viewBox="0 0 52 31" fill="none" xmlns="http://www.w3.org/2000/svg">
<path d="M3.40395 26.5709L3.40564 26.5731C4.39194 27.8694 5.64628 28.8694 7.16435 29.5722C8.68591 30.2767 10.4519 30.6245 12.4554 30.6245C14.4584 30.6245 16.2113 30.2768 17.7064 29.5718C19.224 28.869 20.478 27.8692 21.4641 26.5732C22.4754 25.2527 23.2153 23.6573 23.6884 21.7932C24.1885 19.931 24.4368 17.8254 24.4368 15.4791C24.4368 13.1591 24.1883 11.0667 23.6879 9.20415C23.1874 7.34104 22.4341 5.74664 21.4236 4.42693C20.4385 3.10453 19.1987 2.09031 17.7072 1.38679C16.2129 0.681927 14.4874 0.333666 12.5376 0.333666C10.5609 0.333666 8.80872 0.681755 7.28762 1.38597C5.76923 2.08893 4.50202 3.10244 3.4892 4.42438C2.47683 5.71833 1.72327 7.31425 1.22282 9.20465C0.722533 11.067 0.474046 13.1593 0.474046 15.4791C0.474046 17.8251 0.708597 19.93 1.1809 21.7915L1.18088 21.7915L1.18186 21.7951C1.68221 23.6576 2.4214 25.2514 3.40395 26.5709ZM14.7689 23.3506L14.7689 23.3505L14.7647 23.3535C14.1623 23.7802 13.3984 24.0023 12.4554 24.0023C11.4849 24.0023 10.7089 23.7801 10.1081 23.3556C9.48827 22.89 8.98115 22.2807 8.58813 21.5219C8.21979 20.7579 7.95317 19.8555 7.79218 18.8108C7.65709 17.7559 7.58935 16.6454 7.58935 15.4791C7.58935 14.3136 7.67067 13.2184 7.8326 12.1929L7.83276 12.1918C7.99369 11.1457 8.26049 10.2422 8.62923 9.47736C9.02182 8.71946 9.52749 8.12568 10.1441 7.68838C10.7746 7.26034 11.5671 7.03806 12.5376 7.03806C13.4811 7.03806 14.2286 7.26037 14.8013 7.68367L14.8013 7.68372L14.8058 7.68688C15.4203 8.12218 15.9123 8.72714 16.2785 9.51189L16.2783 9.51199L16.2834 9.52177C16.6771 10.2831 16.9434 11.1829 17.0772 12.2262L17.0771 12.2262L17.0783 12.2339C17.2403 13.2598 17.3215 14.3414 17.3215 15.4791C17.3215 16.672 17.2402 17.7948 17.0782 18.848C16.9173 19.8671 16.6501 20.7729 16.2793 21.568C15.9151 22.3218 15.4115 22.9136 14.7689 23.3506ZM51.4021 18.8897V18.6194H51.1318H48.2792V0.973827V0.703489H48.0088H40.1604H40.0182L39.9376 0.820652L26.9116 19.7638L26.8641 19.833V19.917V24.8479V25.1183H27.1344H41.0406V30.0666V30.3369H41.3109H48.0088H48.2792V30.0666V25.1183H51.1318H51.4021V24.8479V18.8897ZM41.0406 9.64992V18.6194H35.1941L41.0406 9.64992Z" stroke="#EB5D36" stroke-width="0.540677"/>
</svg>
