<?xml version="1.0" encoding="UTF-8" standalone="no"?>
<svg
   xmlns:dc="http://purl.org/dc/elements/1.1/"
   xmlns:cc="http://creativecommons.org/ns#"
   xmlns:rdf="http://www.w3.org/1999/02/22-rdf-syntax-ns#"
   xmlns:svg="http://www.w3.org/2000/svg"
   xmlns="http://www.w3.org/2000/svg"
   xmlns:sodipodi="http://sodipodi.sourceforge.net/DTD/sodipodi-0.dtd"
   xmlns:inkscape="http://www.inkscape.org/namespaces/inkscape"
   inkscape:version="1.0 (1.0+r73+1)"
   sodipodi:docname="2gis_new.svg"
   viewBox="0 0 1821.3333 1024"
   height="1024"
   width="1821.3333"
   xml:space="preserve"
   id="svg2"
   version="1.1"><metadata
     id="metadata8"><rdf:RDF><cc:Work
         rdf:about=""><dc:format>image/svg+xml</dc:format><dc:type
           rdf:resource="http://purl.org/dc/dcmitype/StillImage" /><dc:title></dc:title></cc:Work></rdf:RDF></metadata><defs
     id="defs6"><clipPath
       id="clipPath18"
       clipPathUnits="userSpaceOnUse"><path
         id="path16"
         d="M 0,768 H 1366 V 0 H 0 Z" /></clipPath></defs><sodipodi:namedview
     inkscape:current-layer="g10"
     inkscape:window-maximized="0"
     inkscape:window-y="455"
     inkscape:window-x="67"
     inkscape:cy="512"
     inkscape:cx="910.66663"
     inkscape:zoom="0.24513956"
     units="in"
     showgrid="false"
     id="namedview4"
     inkscape:window-height="816"
     inkscape:window-width="1669"
     inkscape:pageshadow="2"
     inkscape:pageopacity="0"
     guidetolerance="10"
     gridtolerance="10"
     objecttolerance="10"
     borderopacity="1"
     bordercolor="#666666"
     pagecolor="#ffffff" /><g
     transform="matrix(1.3333333,0,0,-1.3333333,0,1024)"
     inkscape:label="Logo 2gis_new"
     inkscape:groupmode="layer"
     id="g10"><g
       transform="matrix(1.6367358,0,0,1.6951376,-431.54129,-259.97065)"
       id="g12"><g
         clip-path="url(#clipPath18)"
         id="g14"><g
           transform="translate(461.0098,357.3135)"
           id="g20"><path
             id="path22"
             style="fill:#29b24a;fill-opacity:1;fill-rule:nonzero;stroke:none"
             d="M 0,0 C -46.687,-0.229 -54.239,-28.378 -56.756,-52.179 L -57.9,-62.706 h -9.384 l -1.144,10.527 c -2.517,23.801 -10.298,51.95 -55.383,52.179 -7.552,15.563 -10.756,28.15 -10.756,42.339 0,35.472 29.065,68.657 72.089,68.657 43.025,0 71.632,-32.955 71.632,-68.887 C 9.154,28.15 7.781,15.563 0,0 m -62.935,154.021 c -70.945,0 -129.075,-58.13 -129.075,-129.303 0,-71.404 58.13,-129.533 129.075,-129.533 71.631,0 129.532,58.129 129.532,129.533 0,71.173 -57.901,129.303 -129.532,129.303" /></g><g
           transform="translate(794.2236,356.8564)"
           id="g24"><path
             id="path26"
             style="fill:#403f41;fill-opacity:1;fill-rule:nonzero;stroke:none"
             d="M 0,0 H 46.916 C 39.592,-17.852 23.114,-26.318 4.119,-26.318 c -33.412,0 -48.974,25.86 -48.974,51.492 0,25.861 14.646,52.179 48.746,52.179 20.826,0 36.387,-9.612 42.338,-26.776 h 38.676 c -6.636,38.676 -40.507,60.875 -80.556,60.875 -49.433,0 -86.508,-33.641 -86.508,-86.736 0,-53.781 40.278,-85.592 86.278,-85.592 45.314,0 80.786,29.522 80.786,75.751 V 28.378 H 0 Z" /></g><g
           transform="translate(1059.0098,416.1299)"
           id="g28"><path
             id="path30"
             style="fill:#403f41;fill-opacity:1;fill-rule:nonzero;stroke:none"
             d="m 0,0 h 37.99 c -4.805,35.702 -31.81,54.468 -69.344,54.468 -37.989,0 -63.392,-19.453 -63.392,-52.866 0,-37.99 32.726,-46.457 50.119,-49.891 22.428,-4.348 44.398,-4.806 44.398,-24.029 0,-13.045 -10.985,-19.453 -26.547,-19.453 -19.224,0 -32.039,9.612 -35.244,27.004 h -37.532 c 2.288,-37.532 29.523,-57.671 69.573,-57.671 37.074,0 67.511,16.935 67.511,53.552 0,39.364 -35.014,46.458 -59.502,50.12 -16.707,2.517 -35.015,4.806 -35.015,22.428 0,12.358 9.383,19.91 25.174,19.91 C -13.502,23.572 -2.518,13.273 0,0" /></g><path
           id="path32"
           style="fill:#403f41;fill-opacity:1;fill-rule:nonzero;stroke:none"
           d="m 938.632,464.876 h -35.931 v -165.92 h 35.931 z" /><g
           transform="translate(629.9053,468.3086)"
           id="g34"><path
             id="path36"
             style="fill:#403f41;fill-opacity:1;fill-rule:nonzero;stroke:none"
             d="m 0,0 c -41.194,0 -71.632,-25.86 -71.403,-68.885 h 37.075 c -0.458,18.766 11.442,35.93 32.497,35.93 18.309,0 29.065,-12.816 29.065,-27.462 0,-14.647 -10.756,-22.886 -30.667,-31.812 -27.234,-12.129 -46.686,-19.91 -66.597,-26.776 v -50.348 H 68.657 v 33.871 h -95.21 c 0,0 0.317,0.099 0.473,0.146 16.194,4.907 28.36,10.238 42.787,16.56 30.895,13.731 48.517,30.896 48.517,60.189 C 65.224,-22.656 38.677,0 0,0" /></g></g></g></g></svg>
