<svg  viewBox="0 0 22 22" fill="none" xmlns="http://www.w3.org/2000/svg">
<path d="M20.1666 4.72087V7.19587C20.1666 9.25837 19.3416 10.0834 17.2791 10.0834H14.8041C12.7416 10.0834 11.9166 9.25837 11.9166 7.19587V4.72087C11.9166 2.65837 12.7416 1.83337 14.8041 1.83337H17.2791C19.3416 1.83337 20.1666 2.65837 20.1666 4.72087ZM10.0833 14.8042V17.2792C10.0833 19.3417 9.25825 20.1667 7.19575 20.1667H4.72075C2.65825 20.1667 1.83325 19.3417 1.83325 17.2792V14.8042C1.83325 12.7417 2.65825 11.9167 4.72075 11.9167H7.19575C9.25825 11.9167 10.0833 12.7417 10.0833 14.8042Z" stroke="black" stroke-width="0.61" stroke-linecap="round" stroke-linejoin="round"/>
<path d="M15.9317 10.0834V12.485C15.9317 14.9509 14.9509 15.9317 12.485 15.9317H10.0834V14.8042C10.0834 12.7417 9.25836 11.9167 7.19586 11.9167H6.06836V9.51503C6.06836 7.04919 7.04919 6.06836 9.51503 6.06836H11.9167V7.19586C11.9167 9.25836 12.7417 10.0834 14.8042 10.0834H15.9317Z" stroke="black" stroke-width="0.61" stroke-linecap="round" stroke-linejoin="round"/>
</svg>
