<svg width="13" height="13" viewBox="0 0 13 13" fill="none" xmlns="http://www.w3.org/2000/svg">
<path d="M6.65396 2.47497L6.38929 2.89158C5.82777 3.77545 5.54702 4.21738 5.49849 4.7052C5.48498 4.84095 5.48498 4.97772 5.49849 5.11347C5.54702 5.60129 5.82777 6.04322 6.38929 6.92709V6.92709C6.49606 7.09516 6.54945 7.17919 6.62387 7.19243C6.64377 7.19597 6.66415 7.19597 6.68406 7.19243C6.75847 7.17919 6.81186 7.09516 6.91864 6.92709V6.92709C7.48015 6.04322 7.76091 5.60129 7.80944 5.11347C7.82294 4.97772 7.82294 4.84095 7.80944 4.7052C7.76091 4.21738 7.48015 3.77545 6.91864 2.89158L6.65396 2.47497ZM6.65396 2.47497V1.50122" stroke="#2D9CDB" stroke-width="0.687351"/>
<path d="M10.8607 6.66114L10.269 6.65174C9.11247 6.63337 8.53419 6.62418 8.05737 6.87318C8.03544 6.88464 8.01374 6.89647 7.99227 6.90868C7.52553 7.17417 7.24481 7.65176 6.68337 8.60692V8.60692C6.55801 8.8202 6.49532 8.92685 6.54173 9.0092C6.54373 9.01274 6.54585 9.01621 6.5481 9.01961C6.60041 9.09875 6.72954 9.1008 6.9878 9.10491V9.10491C8.14437 9.12328 8.72266 9.13247 9.19948 8.88346C9.22141 8.87201 9.24311 8.86018 9.26458 8.84797C9.73132 8.58247 10.012 8.10489 10.5735 7.14973L10.8607 6.66114ZM10.8607 6.66114L11.7536 6.17427" stroke="#2D9CDB" stroke-width="0.687351"/>
<path d="M2.4472 6.66114L3.03881 6.65174C4.19539 6.63337 4.77368 6.62418 5.2505 6.87318C5.27242 6.88464 5.29413 6.89647 5.31559 6.90868C5.78233 7.17417 6.06305 7.65176 6.62449 8.60692V8.60692C6.74985 8.8202 6.81254 8.92685 6.76613 9.0092C6.76413 9.01274 6.76201 9.01621 6.75976 9.01961C6.70745 9.09875 6.57832 9.1008 6.32006 9.10491V9.10491C5.16349 9.12328 4.5852 9.13247 4.10838 8.88346C4.08645 8.87201 4.06475 8.86018 4.04329 8.84797C3.57654 8.58247 3.29583 8.10489 2.73439 7.14973L2.4472 6.66114ZM2.4472 6.66114L1.55431 6.17427" stroke="#2D9CDB" stroke-width="0.687351"/>
<path d="M6.65393 7.83057V11.4821" stroke="#2D9CDB" stroke-width="0.687351"/>
</svg>
