<svg width="38" height="39" viewBox="0 0 38 39" fill="none" xmlns="http://www.w3.org/2000/svg">
<rect x="0.144531" y="0.763123" width="37.5098" height="37.5098" rx="4.76315" fill="#EB5D36"/>
<path d="M21.4956 15.7478H14.7479V22.4956H21.4956V15.7478ZM12.2174 27.5564C13.6092 27.5564 14.7479 26.4177 14.7479 25.026V22.4956H12.2174C10.8257 22.4956 9.68701 23.6343 9.68701 25.026C9.68701 26.4177 10.8257 27.5564 12.2174 27.5564ZM12.2174 15.7478H14.7479V13.2174C14.7479 11.8256 13.6092 10.687 12.2174 10.687C10.8257 10.687 9.68701 11.8256 9.68701 13.2174C9.68701 14.6091 10.8257 15.7478 12.2174 15.7478ZM21.4956 15.7478H24.0261C25.4178 15.7478 26.5565 14.6091 26.5565 13.2174C26.5565 11.8256 25.4178 10.687 24.0261 10.687C22.6343 10.687 21.4956 11.8256 21.4956 13.2174V15.7478ZM24.0261 27.5564C25.4178 27.5564 26.5565 26.4177 26.5565 25.026C26.5565 23.6343 25.4178 22.4956 24.0261 22.4956H21.4956V25.026C21.4956 26.4177 22.6343 27.5564 24.0261 27.5564Z" stroke="white" stroke-width="1.26521" stroke-linecap="round" stroke-linejoin="round"/>
</svg>
