<svg width="38" height="38" viewBox="0 0 38 38" fill="none" xmlns="http://www.w3.org/2000/svg">
<rect x="0.144531" y="0.226868" width="37.5098" height="37.5098" rx="4.76315" fill="#F6F8FB"/>
<path d="M26.4155 24.6187C26.4155 24.9223 26.348 25.2344 26.2046 25.538C26.0612 25.8417 25.8756 26.1285 25.631 26.3984C25.2177 26.8539 24.7623 27.1828 24.2477 27.3937C23.7416 27.6045 23.1934 27.7142 22.603 27.7142C21.7426 27.7142 20.8232 27.5118 19.8532 27.0985C18.8832 26.6852 17.9132 26.1285 16.9517 25.4284C15.9717 24.7115 15.0469 23.9221 14.1851 23.0667C13.3321 22.208 12.5455 21.286 11.8318 20.3085C11.1402 19.3469 10.5835 18.3854 10.1786 17.4323C9.77372 16.4707 9.57129 15.5513 9.57129 14.6741C9.57129 14.1005 9.67251 13.5523 9.87494 13.0462C10.0774 12.5317 10.3979 12.0593 10.8449 11.6376C11.3848 11.1062 11.9752 10.8447 12.5994 10.8447C12.8355 10.8447 13.0717 10.8953 13.2826 10.9966C13.5019 11.0978 13.6959 11.2496 13.8477 11.4689L15.8046 14.2271C15.9564 14.4379 16.066 14.6319 16.1419 14.8175C16.2179 14.9946 16.26 15.1717 16.26 15.332C16.26 15.5344 16.201 15.7369 16.0829 15.9309C15.9733 16.1249 15.813 16.3273 15.6106 16.5297L14.9695 17.1961C14.8767 17.2889 14.8346 17.3985 14.8346 17.5335C14.8346 17.601 14.843 17.66 14.8599 17.7275C14.8852 17.7949 14.9105 17.8456 14.9273 17.8962C15.0792 18.1745 15.3406 18.5372 15.7118 18.9758C16.0913 19.4144 16.4962 19.8615 16.9348 20.3085C17.3903 20.7555 17.8289 21.1688 18.2759 21.5484C18.7145 21.9195 19.0772 22.1726 19.364 22.3244C19.4062 22.3413 19.4568 22.3666 19.5158 22.3919C19.5833 22.4172 19.6508 22.4256 19.7267 22.4256C19.8701 22.4256 19.9798 22.375 20.0725 22.2822L20.7136 21.6496C20.9244 21.4388 21.1269 21.2785 21.3209 21.1773C21.5149 21.0592 21.7089 21.0001 21.9197 21.0001C22.08 21.0001 22.2487 21.0339 22.4343 21.1098C22.6198 21.1857 22.8138 21.2954 23.0247 21.4388L25.8166 23.4209C26.0359 23.5727 26.1877 23.7499 26.2805 23.9607C26.3649 24.1716 26.4155 24.3825 26.4155 24.6187V24.6187Z" stroke="black" stroke-width="1.26521" stroke-miterlimit="10"/>
<path d="M23.4888 16.749C23.4888 16.243 23.0923 15.467 22.5019 14.8344C21.9621 14.2524 21.2451 13.7969 20.5366 13.7969M26.4409 16.749C26.4409 13.4848 23.8009 10.8447 20.5366 10.8447" stroke="black" stroke-width="1.26521" stroke-linecap="round" stroke-linejoin="round"/>
</svg>
