<svg  viewBox="0 0 27 27" fill="none" xmlns="http://www.w3.org/2000/svg">
<path d="M13.3758 14.2589C15.1502 14.2589 16.5886 12.8205 16.5886 11.0461C16.5886 9.27177 15.1502 7.83337 13.3758 7.83337C11.6015 7.83337 10.1631 9.27177 10.1631 11.0461C10.1631 12.8205 11.6015 14.2589 13.3758 14.2589Z" stroke="black" stroke-width="0.611951" stroke-linecap="round" stroke-linejoin="round"/>
<path d="M21.4077 11.0461C21.4077 18.2748 13.3759 23.8971 13.3759 23.8971C13.3759 23.8971 5.34399 18.2748 5.34399 11.0461C5.34399 8.91596 6.19021 6.87302 7.69647 5.36676C9.20274 3.86049 11.2457 3.01428 13.3759 3.01428C15.506 3.01428 17.549 3.86049 19.0552 5.36676C20.5615 6.87302 21.4077 8.91596 21.4077 11.0461V11.0461Z" stroke="black" stroke-width="0.611951" stroke-linecap="round" stroke-linejoin="round"/>
</svg>
