<svg width="12" height="11" viewBox="0 0 12 11" fill="none" xmlns="http://www.w3.org/2000/svg">
<path d="M2.11572 10.1537L8.67234 0.551941H9.72853L3.17191 10.1537H2.11572ZM2.88386 5.70945C2.44492 5.70945 2.05628 5.59972 1.71793 5.38025C1.37959 5.16078 1.11439 4.85444 0.922359 4.46122C0.739469 4.06801 0.648024 3.61078 0.648024 3.08955C0.648024 2.56831 0.739469 2.11108 0.922359 1.71787C1.11439 1.32465 1.37959 1.01831 1.71793 0.798844C2.05628 0.579375 2.44492 0.469641 2.88386 0.469641C3.33194 0.469641 3.72058 0.579375 4.04978 0.798844C4.38813 1.01831 4.64875 1.32465 4.83164 1.71787C5.01453 2.11108 5.10598 2.56831 5.10598 3.08955C5.10598 3.61078 5.01453 4.06801 4.83164 4.46122C4.64875 4.85444 4.38813 5.16078 4.04978 5.38025C3.72058 5.59972 3.33194 5.70945 2.88386 5.70945ZM2.88386 4.92759C3.30451 4.92759 3.63371 4.76756 3.87147 4.44751C4.10922 4.1183 4.2281 3.66565 4.2281 3.08955C4.2281 2.51344 4.10922 2.06536 3.87147 1.7453C3.63371 1.4161 3.30451 1.2515 2.88386 1.2515C2.47236 1.2515 2.14315 1.4161 1.89625 1.7453C1.65849 2.06536 1.53961 2.51344 1.53961 3.08955C1.53961 3.65651 1.65849 4.10459 1.89625 4.43379C2.14315 4.76299 2.47236 4.92759 2.88386 4.92759ZM8.96039 10.236C8.52145 10.236 8.13281 10.1263 7.79447 9.90678C7.45612 9.68732 7.1955 9.38097 7.01261 8.98776C6.82972 8.59455 6.73827 8.13732 6.73827 7.61608C6.73827 7.09484 6.82972 6.63762 7.01261 6.2444C7.1955 5.85119 7.45612 5.54485 7.79447 5.32538C8.13281 5.10591 8.52145 4.99618 8.96039 4.99618C9.40847 4.99618 9.79711 5.10591 10.1263 5.32538C10.4647 5.54485 10.7253 5.85119 10.9082 6.2444C11.1002 6.63762 11.1962 7.09484 11.1962 7.61608C11.1962 8.13732 11.1002 8.59455 10.9082 8.98776C10.7253 9.38097 10.4647 9.68732 10.1263 9.90678C9.79711 10.1263 9.40847 10.236 8.96039 10.236ZM8.96039 9.45413C9.37189 9.45413 9.69653 9.2941 9.93428 8.97404C10.1812 8.64484 10.3046 8.19219 10.3046 7.61608C10.3046 7.04912 10.1812 6.60104 9.93428 6.27184C9.69653 5.94264 9.37189 5.77803 8.96039 5.77803C8.54889 5.77803 8.21969 5.94264 7.97278 6.27184C7.73503 6.5919 7.61615 7.03998 7.61615 7.61608C7.61615 8.19219 7.73503 8.64484 7.97278 8.97404C8.21969 9.2941 8.54889 9.45413 8.96039 9.45413Z" fill="white"/>
</svg>
