<svg viewBox="0 0 26 27" fill="none" xmlns="http://www.w3.org/2000/svg">
<path d="M3.29415 11.0461H8.11327V21.4876H3.29415C3.08113 21.4876 2.87684 21.4029 2.72621 21.2523C2.57559 21.1017 2.49097 20.8974 2.49097 20.6844V11.8493C2.49097 11.6363 2.57559 11.432 2.72621 11.2814C2.87684 11.1308 3.08113 11.0461 3.29415 11.0461V11.0461Z" stroke="black" stroke-width="0.611951" stroke-linecap="round" stroke-linejoin="round"/>
<path d="M8.11328 11.0461L12.1292 3.01428C12.5511 3.01428 12.9689 3.09738 13.3587 3.25884C13.7485 3.42029 14.1026 3.65694 14.401 3.95527C14.6993 4.2536 14.9359 4.60777 15.0974 4.99756C15.2589 5.38735 15.342 5.80512 15.342 6.22702V8.63658H21.5541C21.7819 8.63658 22.0071 8.68502 22.2147 8.77869C22.4223 8.87235 22.6077 9.0091 22.7584 9.17985C22.9091 9.35061 23.0218 9.55147 23.089 9.76911C23.1562 9.98675 23.1764 10.2162 23.1481 10.4422L21.9433 20.0804C21.8948 20.4689 21.706 20.8263 21.4125 21.0854C21.1189 21.3446 20.7409 21.4876 20.3494 21.4876H8.11328" stroke="black" stroke-width="0.611951" stroke-linecap="round" stroke-linejoin="round"/>
</svg>
